<?xml version="1.0"?>
<svg xmlns="http://www.w3.org/2000/svg" viewBox="0 0 24 24" enable-background="new 0 0 24 24">
    <path d="M 2 6 L 2 9 C 2 9.6 2.4 10 3 10 L 3 11 C 3 15.945455 7.0545455 20 12 20 C 16.945455 20 21 15.945455 21 11 L 21 10 C 21.6 10 22 9.6 22 9 L 22 6 L 2 6 z M 5 10 L 19 10 L 19 11 C 19 14.854545 15.854545 18 12 18 C 8.1454545 18 5 14.854545 5 11 L 5 10 z M 12 13 C 10.895431 13 10 13.895431 10 15 C 10 16.104569 10.895431 17 12 17 C 13.104569 17 14 16.104569 14 15 C 14 13.895431 13.104569 13 12 13 z"/>
</svg>
