<?xml version="1.0" encoding="utf-8"?>
<svg width="400" height="400" xmlns="http://www.w3.org/2000/svg" xmlns:bx="https://boxy-svg.com">
  <defs>
    <marker id="se_marker_end_" markerUnits="strokeWidth" orient="auto" viewBox="0 0 100 100" markerWidth="5" markerHeight="5" refX="50" refY="50">
      <path d="m100,50l-100,40l30,-40l-30,-40l100,40z" fill="#000000" stroke="#000000" stroke-width="10"/>
    </marker>
  </defs>
  <g style="" transform="matrix(1.211156, 0, 0, 1.136607, 0.001223, 0.136607)">
    <title>Layer 1</title>
    <g id="bodyFile" transform="matrix(1, 0, 0, 1, 0, 0.092206)">
      <rect x="-1.272" y="-0.267" fill="#7f7f7f" stroke="#000000" width="400" height="399.314" id="svg_70" style=""/>
      <rect fill="#eaeaea" x="275.62488" y="655.10946" width="0" height="61.91583" id="svg_69"/>
      <rect fill="#5fbf00" x="-0.834" width="209.935" height="89.825" stroke="#000000" rx="28.795" ry="28.795" id="svg_71" style=""/>
      <rect fill="#5fbf00" x="285.829" width="114.077" height="88.75" stroke="#000000" rx="20" ry="20" id="svg_72" style="" y="-0.201"/>
      <rect fill="#5fbf00" x="390.293" y="312.734" width="154.574" height="85.65" stroke="#000000" rx="20" ry="20" id="svg_74" style="" transform="matrix(0.999992, 0.004033, 0, 1.000008, -145.657715, -1.968971)"/>
      <line fill="none" stroke="#ffff00" x1="-0.234" y1="274.119" x2="101.34" y2="273.914" id="svg_75" stroke-width="2" style=""/>
      <line fill="none" stroke="#ffff00" x1="294.919" y1="273.31" x2="399.581" y2="273.41" stroke-width="2" id="svg_76" style=""/>
      <g id="phase0" transform="matrix(1, 0, 0, 1, -19.417004, 73.509697)">
        <path transform="rotate(-180, 97, 217)" id="svg_116" fill="#999999" stroke="#000000" d="m82.5,217.5l10,7l0,-5l20,0l0,-4c-6.66699,0 -13.33301,0 -20,0c0,-1.66701 0,-3.33299 0,-5l-10,7z"/>
        <path transform="rotate(-180, 97, 200)" id="svg_116" fill="#999999" stroke="#000000" d="m82.5,217.5l10,7l0,-5l20,0l0,-4c-6.66699,0 -13.33301,0 -20,0c0,-1.66701 0,-3.33299 0,-5l-10,7z"/>
      </g>
      <g id="phase2" style="" transform="matrix(0.985692, -0.001964, -0.01635, 2.03443, -27.677851, -199.654266)" bx:origin="0.915 0.513">
        <g id="svg_106" transform="rotate(-90, 200, 274)"/>
      </g>
      <g id="phase3" transform="matrix(1.288304, 0, 0, 1, -58.875401, 73.54126)" style="">
        <g id="svg_87">
          <line fill="none" stroke="#ffffff" stroke-width="4" x1="130" y1="180" x2="154" y2="180" id="svg_79"/>
          <line fill="none" stroke="#ffffff" stroke-width="4" x1="130" y1="190" x2="154" y2="190" id="svg_80"/>
          <line fill="none" stroke="#ffffff" stroke-width="4" x1="130" y1="200" x2="154" y2="200" id="svg_81"/>
          <line fill="none" stroke="#ffffff" stroke-width="4" x1="130" y1="210" x2="154" y2="210" id="svg_82"/>
          <line fill="none" stroke="#ffffff" stroke-width="4" x1="130" y1="170" x2="154" y2="170" id="svg_83"/>
          <line fill="none" stroke="#ffffff" stroke-width="4" x1="130" y1="220" x2="154" y2="220" id="svg_84"/>
          <line fill="none" stroke="#ffffff" stroke-width="4" x1="130" y1="230" x2="154" y2="230" id="svg_85"/>
          <line fill="none" stroke="#ffffff" stroke-width="4" x1="126" y1="168" x2="126" y2="232" id="svg_86"/>
        </g>
        <g id="svg_88" transform="rotate(180, 274.003, 200.003)">
          <line fill="none" stroke="#ffffff" stroke-width="4" x1="278.00187" y1="180.00102" x2="302.00187" y2="180.00102" id="svg_89"/>
          <line fill="none" stroke="#ffffff" stroke-width="4" x1="278.00187" y1="190.00102" x2="302.00187" y2="190.00102" id="svg_90"/>
          <line fill="none" stroke="#ffffff" stroke-width="4" x1="278.00187" y1="200.00102" x2="302.00187" y2="200.00102" id="svg_91"/>
          <line fill="none" stroke="#ffffff" stroke-width="4" x1="278.00187" y1="210.00102" x2="302.00187" y2="210.00102" id="svg_92"/>
          <line fill="none" stroke="#ffffff" stroke-width="4" x1="278.00187" y1="170.00102" x2="302.00187" y2="170.00102" id="svg_93"/>
          <line fill="none" stroke="#ffffff" stroke-width="4" x1="278.00187" y1="220.00102" x2="302.00187" y2="220.00102" id="svg_94"/>
          <line fill="none" stroke="#ffffff" stroke-width="4" x1="278.00187" y1="230.00102" x2="302.00187" y2="230.00102" id="svg_95"/>
          <line fill="none" stroke="#ffffff" stroke-width="4" x1="274.00187" y1="168.00102" x2="274.00187" y2="232.00102" id="svg_96"/>
        </g>
      </g>
      <rect fill="#5fbf00" x="-0.909" y="309.303" width="148.474" height="88.913" stroke="#000000" id="svg_73" rx="24.233" ry="24.233" style=""/>
      <g id="g-1" transform="matrix(1.04114, 0.000115, 0, 1, 13.827814, -73.019112)" style="" bx:origin="0.488 0.051">
        <g id="g-2">
          <line fill="none" stroke="#ffffff" stroke-width="4" x1="130" y1="180" x2="154" y2="180" id="line-2"/>
          <line fill="none" stroke="#ffffff" stroke-width="4" x1="130" y1="190" x2="154" y2="190" id="line-3"/>
          <line fill="none" stroke="#ffffff" stroke-width="4" x1="130" y1="200" x2="154" y2="200" id="line-4"/>
          <line fill="none" stroke="#ffffff" stroke-width="4" x1="130" y1="210" x2="154" y2="210" id="line-5"/>
          <line fill="none" stroke="#ffffff" stroke-width="4" x1="130" y1="170" x2="154" y2="170" id="line-6"/>
          <line fill="none" stroke="#ffffff" stroke-width="4" x1="130" y1="220" x2="154" y2="220" id="line-7"/>
          <line fill="none" stroke="#ffffff" stroke-width="4" x1="130" y1="230" x2="154" y2="230" id="line-8"/>
          <line fill="none" stroke="#ffffff" stroke-width="4" x1="126" y1="168" x2="126" y2="232" id="line-9"/>
        </g>
        <g id="g-3" transform="rotate(180, 274.003, 200.003)">
          <line fill="none" stroke="#ffffff" stroke-width="4" x1="248.511" y1="181.014" x2="274.629" y2="181.483" id="line-10"/>
          <line fill="none" stroke="#ffffff" stroke-width="4" x1="248.556" y1="190.113" x2="274.232" y2="190.064" id="line-11"/>
          <line fill="none" stroke="#ffffff" stroke-width="4" x1="249.199" y1="199.39" x2="274.4" y2="199.885" id="line-12"/>
          <line fill="none" stroke="#ffffff" stroke-width="4" x1="249.214" y1="209.326" x2="274.71" y2="209.562" id="line-13"/>
          <line fill="none" stroke="#ffffff" stroke-width="4" x1="248.834" y1="170.96" x2="274.196" y2="171.083" id="line-14"/>
          <line fill="none" stroke="#ffffff" stroke-width="4" x1="249.498" y1="219.36" x2="275.378" y2="219.6" id="line-15"/>
          <line fill="none" stroke="#ffffff" stroke-width="4" x1="249.481" y1="229.849" x2="275.441" y2="230.476" id="line-16"/>
          <line fill="none" stroke="#ffffff" stroke-width="4" x1="241.248" y1="167.616" x2="241.821" y2="232.098" id="line-17"/>
        </g>
      </g>
      <g id="g-4" transform="matrix(-1.07679, 0, 0, 1.237417, 472.923676, -123.390594)" style="">
        <path transform="rotate(-180, 97, 217)" id="path-1" fill="#999999" stroke="#000000" d="m82.5,217.5l10,7l0,-5l20,0l0,-4c-6.66699,0 -13.33301,0 -20,0c0,-1.66701 0,-3.33299 0,-5l-10,7z"/>
        <path transform="rotate(-180, 97, 200)" id="path-1" fill="#999999" stroke="#000000" d="m82.5,217.5l10,7l0,-5l20,0l0,-4c-6.66699,0 -13.33301,0 -20,0c0,-1.66701 0,-3.33299 0,-5l-10,7z"/>
      </g>
      <rect fill="#5fbf00" x="-0.131" y="163.485" width="184.451" height="70.747" stroke="#000000" id="rect-1" style=""/>
      <g id="g-5" style="" transform="matrix(1.075729, -0.002143, -0.01628, 2.025551, -14.523355, -201.332001)" bx:origin="0.915 0.513">
        <g id="g-6" transform="rotate(90, 200, 126)">
          <line fill="none" stroke="#ffffff" stroke-width="4" x1="205.049" y1="59.681" x2="216.873" y2="59.638" id="line-18"/>
          <line fill="none" stroke="#ffffff" stroke-width="4" x1="205.09" y1="68.893" x2="217.117" y2="68.391" id="line-19"/>
          <line fill="none" stroke="#ffffff" stroke-width="4" x1="204.993" y1="78.659" x2="217.005" y2="78.044" id="line-20"/>
          <line fill="none" stroke="#ffffff" stroke-width="4" x1="204.781" y1="88.382" x2="217.078" y2="88.177" id="line-21"/>
          <line fill="none" stroke="#ffffff" stroke-width="4" x1="204.963" y1="51.481" x2="216.913" y2="50.375" id="line-22"/>
          <line fill="none" stroke="#ffffff" stroke-width="4" x1="205.06" y1="96.954" x2="217.065" y2="96.085" id="line-23"/>
          <line fill="none" stroke="#ffffff" stroke-width="4" x1="204.926" y1="105.741" x2="217.06" y2="105.305" id="line-24"/>
          <line fill="none" stroke="#ffffff" stroke-width="4" x1="200.184" y1="49.834" x2="200.309" y2="108.071" id="line-25"/>
        </g>
        <g id="g-7" transform="rotate(-90, 200, 274)">
          <line fill="none" stroke="#ffffff" stroke-width="4" x1="203.99949" y1="254.00101" x2="219.017" y2="254.4" id="line-26"/>
          <line fill="none" stroke="#ffffff" stroke-width="4" x1="203.99949" y1="264.00101" x2="219.257" y2="263.273" id="line-27"/>
          <line fill="none" stroke="#ffffff" stroke-width="4" x1="203.99949" y1="274.00101" x2="219.188" y2="273.362" id="line-28"/>
          <line fill="none" stroke="#ffffff" stroke-width="4" x1="203.99949" y1="284.00101" x2="219.298" y2="283.292" id="line-29"/>
          <line fill="none" stroke="#ffffff" stroke-width="4" x1="203.99949" y1="244.00101" x2="219.139" y2="244.149" id="line-30"/>
          <line fill="none" stroke="#ffffff" stroke-width="4" x1="203.99949" y1="294.00101" x2="219.42" y2="292.977" id="line-31"/>
          <line fill="none" stroke="#ffffff" stroke-width="4" x1="203.99949" y1="304.00101" x2="219.887" y2="302.755" id="line-32"/>
          <line fill="none" stroke="#ffffff" stroke-width="4" x1="199.99949" y1="242.00101" x2="199.99949" y2="306.00101" id="line-33"/>
        </g>
      </g>
      <g id="g-8" transform="matrix(0, -1.038696, 1.131618, 0, 20.905369, 338.713531)" style="">
        <path id="path-2" fill="#999999" stroke="#000000" d="m285.5,182l10,7l0,-5l20,0l0,-4c-6.66666,0 -13.33334,0 -20,0c0,-1.66667 0,-3.33333 0,-5l-10,7z"/>
        <path id="path-3" fill="#999999" stroke="#000000" d="m285.5,220l10,7l0,-5l20,0l0,-4c-6.66699,0 -13.33301,0 -20,0c0,-1.66701 0,-3.33299 0,-5l-10,7z"/>
      </g>
      <line fill="none" stroke="#ffff00" x1="1.327" y1="123.117" x2="101.982" y2="123.117" id="line-1" stroke-width="2" style=""/>
      <line fill="none" stroke="#ffff00" x1="292.565" y1="123.933" x2="400.72" y2="123.083" id="line-34" stroke-width="2" style=""/>
      <text transform="matrix(1.241075, 0, 0, 1.208207, -96.310822, 346.484833)" style="fill: rgb(112, 228, 244); font-size: 11.4px; line-height: 26.7463px; stroke: rgb(68, 225, 206); white-space: pre;" x="215.194" y="23.672">Guemes</text>
      <text transform="matrix(1.217282, 0, 0, 1.235329, -253.967804, 115.903755)" style="fill: rgb(64, 192, 234); font-size: 11.4px; line-height: 26.7463px; stroke: rgb(68, 225, 206); white-space: pre;" x="215.194" y="23.672">Av. Maipu</text>
      <text transform="matrix(1.217282, 0, 0, 1.235329, 60.144764, 267.112823)" style="fill: rgb(64, 192, 234); font-size: 11.4px; line-height: 26.7463px; stroke: rgb(68, 225, 206); white-space: pre;" x="215.194" y="23.672">Av. Maipu</text>
      <text x="432.117" y="169.065" style="white-space: pre; fill: rgb(51, 51, 51); font-size: 24px;"> </text>
      <text x="439.71" y="163.565" style="white-space: pre; fill: rgb(51, 51, 51); font-size: 24px;"> </text>
      <text x="458.82" y="151.674" style="white-space: pre; fill: rgb(51, 51, 51); font-size: 24px;"> </text>
      <rect fill="#5fbf00" x="288.331" y="164.393" width="109.753" height="70.747" stroke="#000000" id="rect-2" style=""/>
    </g>
  </g>
</svg>