<?xml version="1.0" encoding="utf-8"?>
<svg width="400" height="400" xmlns="http://www.w3.org/2000/svg" xmlns:bx="https://boxy-svg.com">
  <defs>
    <marker id="se_marker_end_" markerUnits="strokeWidth" orient="auto" viewBox="0 0 100 100" markerWidth="5" markerHeight="5" refX="50" refY="50">
      <path d="m100,50l-100,40l30,-40l-30,-40l100,40z" fill="#000000" stroke="#000000" stroke-width="10"/>
    </marker>
  </defs>
  <g style="" transform="matrix(-1.15162, 0, 0, -1.146865, 595.33197, 449.377258)">
    <title>Layer 1</title>
    <g id="bodyFile">
      <rect x="-492.473" y="-3.766" fill="#7f7f7f" stroke="#000000" width="520.151" height="402.813" id="svg_70" style="" transform="matrix(-1, 0, 0, 1, 0, 0)"/>
      <rect fill="#eaeaea" x="-275.625" y="-655.109" height="61.916" id="svg_69" transform="matrix(NaN, NaN, NaN, NaN, NaN, NaN)"/>
      <rect fill="#5fbf00" x="-491.449" width="156.147" height="89.825" stroke="#000000" rx="28.795" ry="28.795" id="svg_71" style="" transform="matrix(-1, 0, 0, 1, 0, 0)"/>
      <rect fill="#5fbf00" x="-239.656" width="266.802" height="88.75" stroke="#000000" rx="20" ry="20" id="svg_72" style="" y="-1.269" transform="matrix(-1, 0, 0, 1, 0, 0)"/>
      <rect fill="#5fbf00" x="-380.431" y="-312.734" width="150.668" height="85.65" stroke="#000000" rx="20" ry="20" id="svg_74" style="" transform="matrix(-0.999992, 0.004033, 0, 1.000008, -256.394222, 625.426754)"/>
      <line fill="none" stroke="#ffff00" x1="389.52" y1="273.914" x2="491.094" y2="274.119" id="svg_75" stroke-width="2" style="" transform="matrix(-1, 0, 0, -1, 880.613983, 548.03299)"/>
      <line fill="none" stroke="#ffff00" x1="-23.21" y1="270.826" x2="64.18" y2="272.396" stroke-width="2" id="svg_76" style="" transform="matrix(-1, 0, 0, -1, 40.970001, 543.221985)"/>
      <g id="phase0" transform="matrix(-1, 0, 0, 1, 507.839325, -73.966347)">
        <path transform="rotate(-180, 97, 217)" id="svg_116" fill="#999999" stroke="#000000" d="m82.5,217.5l10,7l0,-5l20,0l0,-4c-6.66699,0 -13.33301,0 -20,0c0,-1.66701 0,-3.33299 0,-5l-10,7z"/>
        <path transform="rotate(-180, 97, 200)" id="svg_116" fill="#999999" stroke="#000000" d="m82.5,217.5l10,7l0,-5l20,0l0,-4c-6.66699,0 -13.33301,0 -20,0c0,-1.66701 0,-3.33299 0,-5l-10,7z"/>
      </g>
      <g id="phase2" style="" transform="matrix(-0.985692, -0.001964, 0.01635, 2.03443, 518.538025, -199.654266)" bx:origin="0.915 0.513">
        <g id="svg_106" transform="rotate(-90, 200, 274)"/>
      </g>
      <g id="phase3" transform="matrix(-2.114053, 0, 0, 1, 653.779907, 73.54126)" style="">
        <g id="svg_87">
          <line fill="none" stroke="#ffffff" stroke-width="4" x1="130" y1="180" x2="145.814" y2="180.297" id="svg_79"/>
          <line fill="none" stroke="#ffffff" stroke-width="4" x1="130" y1="190" x2="145.457" y2="190.179" id="svg_80"/>
          <line fill="none" stroke="#ffffff" stroke-width="4" x1="130" y1="200" x2="145.66" y2="199.941" id="svg_81"/>
          <line fill="none" stroke="#ffffff" stroke-width="4" x1="130" y1="210" x2="145.918" y2="210.077" id="svg_82"/>
          <line fill="none" stroke="#ffffff" stroke-width="4" x1="130" y1="170" x2="145.409" y2="170.392" id="svg_83"/>
          <line fill="none" stroke="#ffffff" stroke-width="4" x1="130" y1="220" x2="145.784" y2="220.177" id="svg_84"/>
          <line fill="none" stroke="#ffffff" stroke-width="4" x1="130" y1="230" x2="145.379" y2="230.241" id="svg_85"/>
          <line fill="none" stroke="#ffffff" stroke-width="4" x1="126" y1="168" x2="126" y2="232" id="svg_86"/>
        </g>
        <g id="svg_88" transform="rotate(180, 274.003, 200.003)">
          <line fill="none" stroke="#ffffff" stroke-width="4" x1="278.00187" y1="180.00102" x2="293.875" y2="178.964" id="svg_89"/>
          <line fill="none" stroke="#ffffff" stroke-width="4" x1="278.00187" y1="190.00102" x2="293.989" y2="189.233" id="svg_90"/>
          <line fill="none" stroke="#ffffff" stroke-width="4" x1="278.00187" y1="200.00102" x2="294.044" y2="199.883" id="svg_91"/>
          <line fill="none" stroke="#ffffff" stroke-width="4" x1="278.00187" y1="210.00102" x2="294.652" y2="209.676" id="svg_92"/>
          <line fill="none" stroke="#ffffff" stroke-width="4" x1="278.00187" y1="170.00102" x2="294.126" y2="169.097" id="svg_93"/>
          <line fill="none" stroke="#ffffff" stroke-width="4" x1="278.00187" y1="220.00102" x2="294.541" y2="219.389" id="svg_94"/>
          <line fill="none" stroke="#ffffff" stroke-width="4" x1="278.00187" y1="230.00102" x2="294.425" y2="229.84" id="svg_95"/>
          <line fill="none" stroke="#ffffff" stroke-width="4" x1="274.00187" y1="168.00102" x2="274.00187" y2="232.00102" id="svg_96"/>
        </g>
      </g>
      <rect fill="#5fbf00" x="-491.769" y="309.303" width="279.686" height="88.913" stroke="#000000" id="svg_73" rx="24.233" ry="24.233" style="" transform="matrix(-1, 0, 0, 1, 0, 0)"/>
      <g id="g-1" transform="matrix(-1.348113, 0.000149, 0, 1, 557.223999, -73.027946)" style="" bx:origin="0.488 0.051">
        <g id="g-2">
          <line fill="none" stroke="#ffffff" stroke-width="4" x1="130" y1="180" x2="154" y2="180" id="line-2"/>
          <line fill="none" stroke="#ffffff" stroke-width="4" x1="130" y1="190" x2="154" y2="190" id="line-3"/>
          <line fill="none" stroke="#ffffff" stroke-width="4" x1="130" y1="200" x2="154" y2="200" id="line-4"/>
          <line fill="none" stroke="#ffffff" stroke-width="4" x1="130" y1="210" x2="154" y2="210" id="line-5"/>
          <line fill="none" stroke="#ffffff" stroke-width="4" x1="130" y1="170" x2="154" y2="170" id="line-6"/>
          <line fill="none" stroke="#ffffff" stroke-width="4" x1="130" y1="220" x2="154" y2="220" id="line-7"/>
          <line fill="none" stroke="#ffffff" stroke-width="4" x1="130" y1="230" x2="154" y2="230" id="line-8"/>
          <line fill="none" stroke="#ffffff" stroke-width="4" x1="126" y1="168" x2="126" y2="232" id="line-9"/>
        </g>
        <g id="g-3" transform="rotate(180, 274.003, 200.003)">
          <line fill="none" stroke="#ffffff" stroke-width="4" x1="278.00187" y1="180.00102" x2="302.00187" y2="180.00102" id="line-10"/>
          <line fill="none" stroke="#ffffff" stroke-width="4" x1="278.00187" y1="190.00102" x2="302.00187" y2="190.00102" id="line-11"/>
          <line fill="none" stroke="#ffffff" stroke-width="4" x1="278.00187" y1="200.00102" x2="302.00187" y2="200.00102" id="line-12"/>
          <line fill="none" stroke="#ffffff" stroke-width="4" x1="278.00187" y1="210.00102" x2="302.00187" y2="210.00102" id="line-13"/>
          <line fill="none" stroke="#ffffff" stroke-width="4" x1="278.00187" y1="170.00102" x2="302.00187" y2="170.00102" id="line-14"/>
          <line fill="none" stroke="#ffffff" stroke-width="4" x1="278.00187" y1="220.00102" x2="302.00187" y2="220.00102" id="line-15"/>
          <line fill="none" stroke="#ffffff" stroke-width="4" x1="278.00187" y1="230.00102" x2="302.00187" y2="230.00102" id="line-16"/>
          <line fill="none" stroke="#ffffff" stroke-width="4" x1="274.00187" y1="168.00102" x2="274.00187" y2="232.00102" id="line-17"/>
        </g>
      </g>
      <g id="g-4" transform="matrix(1.079992, 0, 0, 1.237417, -60.85363, 25.830189)" style="">
        <path transform="rotate(-180, 97, 217)" id="path-1" fill="#999999" stroke="#000000" d="m82.5,217.5l10,7l0,-5l20,0l0,-4c-6.66699,0 -13.33301,0 -20,0c0,-1.66701 0,-3.33299 0,-5l-10,7z"/>
        <path transform="rotate(-180, 97, 200)" id="path-1" fill="#999999" stroke="#000000" d="m82.5,217.5l10,7l0,-5l20,0l0,-4c-6.66699,0 -13.33301,0 -20,0c0,-1.66701 0,-3.33299 0,-5l-10,7z"/>
      </g>
      <rect fill="#5fbf00" x="-490.246" y="163.485" width="140.428" height="70.747" stroke="#000000" id="rect-1" style="" transform="matrix(-1, 0, 0, 1, 0, 0)"/>
      <g id="g-5" style="" transform="matrix(-1.22841, -0.002447, 0.01606, 1.998215, 531.45636, -197.636795)" bx:origin="0.915 0.513">
        <g id="g-6" transform="rotate(90, 200, 126)">
          <line fill="none" stroke="#ffffff" stroke-width="4" x1="203.99949" y1="105.99813" x2="218.288" y2="106.504" id="line-18"/>
          <line fill="none" stroke="#ffffff" stroke-width="4" x1="203.99949" y1="115.99813" x2="217.908" y2="116.739" id="line-19"/>
          <line fill="none" stroke="#ffffff" stroke-width="4" x1="203.99949" y1="125.99813" x2="218.099" y2="126.412" id="line-20"/>
          <line fill="none" stroke="#ffffff" stroke-width="4" x1="203.99949" y1="135.99813" x2="217.901" y2="135.818" id="line-21"/>
          <line fill="none" stroke="#ffffff" stroke-width="4" x1="203.99949" y1="95.99813" x2="218.059" y2="96.994" id="line-22"/>
          <line fill="none" stroke="#ffffff" stroke-width="4" x1="203.99949" y1="145.99813" x2="217.871" y2="145.753" id="line-23"/>
          <line fill="none" stroke="#ffffff" stroke-width="4" x1="203.99949" y1="155.99813" x2="217.799" y2="156.679" id="line-24"/>
          <line fill="none" stroke="#ffffff" stroke-width="4" x1="199.99949" y1="93.99813" x2="199.99949" y2="157.99813" id="line-25"/>
        </g>
        <g id="g-7" transform="rotate(-90, 200, 274)">
          <line fill="none" stroke="#ffffff" stroke-width="4" x1="203.135" y1="355.82" x2="218.047" y2="355.851" id="line-26"/>
          <line fill="none" stroke="#ffffff" stroke-width="4" x1="203.385" y1="363.98" x2="217.627" y2="363.649" id="line-27"/>
          <line fill="none" stroke="#ffffff" stroke-width="4" x1="203.549" y1="372.186" x2="217.889" y2="371.124" id="line-28"/>
          <line fill="none" stroke="#ffffff" stroke-width="4" x1="203.918" y1="380.528" x2="217.933" y2="379.728" id="line-29"/>
          <line fill="none" stroke="#ffffff" stroke-width="4" x1="203.387" y1="347.228" x2="217.956" y2="347.517" id="line-30"/>
          <line fill="none" stroke="#ffffff" stroke-width="4" x1="204.058" y1="387.861" x2="217.823" y2="387.976" id="line-31"/>
          <line fill="none" stroke="#ffffff" stroke-width="4" x1="203.927" y1="397.606" x2="218.038" y2="396.829" id="line-32"/>
          <line fill="none" stroke="#ffffff" stroke-width="4" x1="199.524" y1="344.277" x2="199.662" y2="400.7" id="line-33"/>
        </g>
      </g>
      <g id="g-8" transform="matrix(0, 0.821885, -1.146544, 0, 397.89624, 135.964478)" style="">
        <path id="path-2" fill="#999999" stroke="#000000" d="m285.5,182l10,7l0,-5l20,0l0,-4c-6.66666,0 -13.33334,0 -20,0c0,-1.66667 0,-3.33333 0,-5l-10,7z"/>
        <path id="path-3" fill="#999999" stroke="#000000" d="m285.5,220l10,7l0,-5l20,0l0,-4c-6.66699,0 -13.33301,0 -20,0c0,-1.66701 0,-3.33299 0,-5l-10,7z"/>
      </g>
      <line fill="none" stroke="#ffff00" x1="388.878" y1="123.117" x2="489.533" y2="123.117" id="line-1" stroke-width="2" style="" transform="matrix(-1, 0, 0, -1, 878.41098, 246.233994)"/>
      <line fill="none" stroke="#ffff00" x1="-14.109" y1="123.552" x2="174.444" y2="122.709" id="line-34" stroke-width="2" style="" transform="matrix(-1, 0, 0, -1, 160.334993, 246.261002)"/>
      <text transform="matrix(-1.217282, 0, 0, -1.288555, 590.824829, 66.823997)" style="fill: rgb(112, 228, 244); font-size: 11.4px; line-height: 26.7463px; stroke: rgb(68, 225, 206); white-space: pre;" x="215.194" y="23.672">Felix Amador</text>
      <text transform="matrix(-1.217282, 0, 0, -1.235329, 367.480408, 166.359482)" style="fill: rgb(64, 192, 234); font-size: 11.4px; line-height: 26.7463px; stroke: rgb(68, 225, 206); white-space: pre;" x="215.194" y="23.672">Av. Maipu</text>
      <text transform="matrix(-1.217282, 0, 0, -1.235329, 738.804016, 313.411804)" style="fill: rgb(64, 192, 234); font-size: 11.4px; line-height: 26.7463px; stroke: rgb(68, 225, 206); white-space: pre;" x="215.194" y="23.672">Av. Maipu</text>
      <text x="-58.743" y="169.065" style="white-space: pre; fill: rgb(51, 51, 51); font-size: 24px;" transform="matrix(-1, 0, 0, 1, 0, 0)"> </text>
      <text x="-51.15" y="163.565" style="white-space: pre; fill: rgb(51, 51, 51); font-size: 24px;" transform="matrix(-1, 0, 0, 1, 0, 0)"> </text>
      <text x="-32.04" y="151.674" style="white-space: pre; fill: rgb(51, 51, 51); font-size: 24px;" transform="matrix(-1, 0, 0, 1, 0, 0)"> </text>
      <rect fill="#5fbf00" x="-224.891" y="163.871" width="251.88" height="70.747" stroke="#000000" id="rect-2" style="" transform="matrix(-1, 0, 0, 1, 0, 0)"/>
      <text transform="matrix(-1.217282, 0, 0, -1.235329, 466.86554, 385.617096)" style="fill: rgb(112, 228, 244); font-size: 11.4px; line-height: 26.7463px; stroke: rgb(68, 225, 206); white-space: pre;" x="215.194" y="23.672">Ing. Marconi</text>
    </g>
  </g>
</svg>