<?xml version="1.0" encoding="UTF-8"?>
<svg width="52" height="800" xmlns="http://www.w3.org/2000/svg">
 <!-- Created with SVG-edit - http://svg-edit.googlecode.com/ -->
 <defs>
  <marker id="se_marker_end_svg_11" markerUnits="strokeWidth" orient="auto" viewBox="0 0 100 100" markerWidth="5" markerHeight="5" refX="50" refY="50">
   <path d="m100,50l-100,40l30,-40l-30,-40l100,40z" fill="#FF0000" stroke="#FF0000" stroke-width="10"/>
  </marker>
  <marker id="se_marker_end_svg_12" markerUnits="strokeWidth" orient="auto" viewBox="0 0 100 100" markerWidth="5" markerHeight="5" refX="50" refY="50">
   <path d="m100,50l-100,40l30,-40l-30,-40l100,40z" fill="#FFFF00" stroke="#FFFF00" stroke-width="10"/>
  </marker>
  <marker id="se_marker_end_svg_13" markerUnits="strokeWidth" orient="auto" viewBox="0 0 100 100" markerWidth="5" markerHeight="5" refX="50" refY="50">
   <path d="m100,50l-100,40l30,-40l-30,-40l100,40z" fill="#00FF00" stroke="#00FF00" stroke-width="10"/>
  </marker>
  <linearGradient id="svg_111" x1="0" y1="0.5" x2="1" y2="0.5">
   <stop offset="0" stop-color="#404040"/>
   <stop offset="1" stop-color="#000000"/>
  </linearGradient>
 </defs>
 <g>
  <rect fill="url(#svg_111)" stroke="#000000" x="10" y="10" width="32" height="32" id="CC_OFF"/>
  <title>Layer 1</title>
  <g id="CC_ATR">
   <rect fill="#404040" stroke="#000000" x="10" y="310" width="32" height="32" id="svg_9"/>
   <line id="svg_8" x1="13" y1="326" x2="41" y2="326" stroke="#FF0000" fill="#404040" stroke-width="2" stroke-dasharray="5,5"/>
   <line fill="#404040" stroke="#FF0000" x1="15" y1="335" x2="33" y2="319" id="svg_11" marker-end="url(#se_marker_end_svg_11)"/>
  </g>
  <g id="CC_ATA">
   <rect id="svg_17" fill="#404040" stroke="#000000" x="10" y="359" width="32" height="32"/>
   <line id="svg_18" x1="13" y1="375" x2="41" y2="375" stroke="#FFFF00" fill="#404040" stroke-width="2" stroke-dasharray="5,5"/>
   <line id="svg_19" fill="#404040" stroke="#FFFF00" x1="15" y1="384" x2="33" y2="368" marker-end="url(#se_marker_end_svg_12)"/>
  </g>
  <g id="CC_ATG">
   <rect id="svg_21" fill="#404040" stroke="#000000" x="10" y="410" width="32" height="32"/>
   <line id="svg_22" x1="13" y1="426" x2="41" y2="426" stroke="#00FF00" fill="#404040" stroke-width="2" stroke-dasharray="5,5"/>
   <line id="svg_23" fill="#404040" stroke="#00FF00" x1="15" y1="435" x2="33" y2="419" marker-end="url(#se_marker_end_svg_13)"/>
  </g>
  <g id="CC_G">
   <rect fill="#404040" stroke="#000000" x="10" y="160" width="32" height="32" id="svg_7"/>
   <line id="svg_6" x1="12" y1="176" x2="40" y2="176" stroke="#00ff00" fill="#404040" stroke-width="2"/>
  </g>
  <g id="CC_A">
   <rect fill="#404040" stroke="#000000" x="10" y="110" width="32" height="32" id="svg_5"/>
   <line id="svg_4" x1="12" y1="126" x2="40" y2="126" stroke="#ffff00" fill="#404040" stroke-width="2"/>
  </g>
  <g id="CC_R">
   <rect fill="#404040" stroke="#000000" x="10" y="60" width="32" height="32" id="svg_3"/>
   <line id="svg_2" x1="12" y1="76" x2="40" y2="76" stroke="#FF0000" fill="#404040" stroke-width="2"/>
  </g>
  <g id="CC_AG">
   <rect id="svg_28" fill="#404040" stroke="#000000" x="10" y="260" width="32" height="32"/>
   <line id="svg_29" x1="12" y1="272" x2="40" y2="272" stroke="#FFff00" fill="#404040" stroke-width="2"/>
   <line id="svg_29" x1="12" y1="280" x2="40" y2="280" stroke="#00ff00" fill="#404040" stroke-width="2"/>
  </g>
  <g id="CC_RA">
   <rect id="svg_34" fill="#404040" stroke="#000000" x="10" y="210" width="32" height="32"/>
   <line id="svg_35" x1="12" y1="222" x2="40" y2="222" stroke="#FF0000" fill="#404040" stroke-width="2"/>
   <line id="svg_35" x1="12" y1="230" x2="40" y2="230" stroke="#FFFF00" fill="#404040" stroke-width="2"/>
  </g>
  <g id="CC_ATAG">
   <rect fill="#404040" stroke="#000000" x="10" y="710" width="32" height="32" id="svg_37"/>
   <line id="svg_18" x1="13" y1="722" x2="41" y2="722" stroke="#FFFF00" fill="#404040" stroke-width="2" stroke-dasharray="5,5"/>
   <line id="svg_19" fill="#404040" stroke="#FFFF00" x1="15" y1="735" x2="33" y2="719" marker-end="url(#se_marker_end_svg_12)"/>
   <line x1="12" y1="730" x2="40" y2="730" stroke="#00ff00" fill="#404040" stroke-width="2" id="svg_39"/>
  </g>
  <g id="CC_ATRA">
   <rect fill="#404040" stroke="#000000" x="10" y="610" width="32" height="32" id="svg_41"/>
   <line id="svg_18" x1="13" y1="630" x2="41" y2="630" stroke="#FFFF00" fill="#404040" stroke-width="2" stroke-dasharray="5,5"/>
   <line x1="12" y1="622" x2="40" y2="622" stroke="#FF0000" fill="#404040" stroke-width="2" id="svg_43"/>
   <line id="svg_19" fill="#404040" stroke="#FFFF00" x1="15" y1="635" x2="33" y2="619" marker-end="url(#se_marker_end_svg_12)"/>
  </g>
  <g id="CC_DTR">
   <rect fill="#404040" stroke="#000000" x="10" y="460" width="32" height="32" id="svg_87"/>
   <line x1="13" y1="476" x2="41" y2="476" stroke="#FF0000" fill="#404040" stroke-width="2" stroke-dasharray="5,5" id="svg_88"/>
   <line fill="#404040" stroke="#FF0000" x1="15" y1="469" x2="33" y2="485" marker-end="url(#se_marker_end_svg_11)" id="svg_89"/>
  </g>
  <g id="CC_DTA">
   <rect fill="#404040" stroke="#000000" x="10" y="510" width="32" height="32" id="svg_91"/>
   <line x1="13" y1="526" x2="41" y2="526" stroke="#FFFF00" fill="#404040" stroke-width="2" stroke-dasharray="5,5" id="svg_92"/>
   <line fill="#404040" stroke="#FFFF00" x1="15" y1="519" x2="33" y2="535" marker-end="url(#se_marker_end_svg_12)" id="svg_93"/>
  </g>
  <g id="CC_DTG">
   <rect fill="#404040" stroke="#000000" x="10" y="560" width="32" height="32" id="svg_95"/>
   <line x1="13" y1="576" x2="41" y2="576" stroke="#00FF00" fill="#404040" stroke-width="2" stroke-dasharray="5,5" id="svg_96"/>
   <line fill="#404040" stroke="#00FF00" x1="15" y1="569" x2="33" y2="585" marker-end="url(#se_marker_end_svg_13)" id="svg_97"/>
  </g>
  <g id="CC_DTAG">
   <rect fill="#404040" stroke="#000000" x="10" y="760" width="32" height="32" id="svg_99"/>
   <line x1="13" y1="772" x2="41" y2="772" stroke="#FFFF00" fill="#404040" stroke-width="2" stroke-dasharray="5,5" id="svg_100"/>
   <line fill="#404040" stroke="#FFFF00" x1="15" y1="769" x2="33" y2="785" marker-end="url(#se_marker_end_svg_12)" id="svg_101"/>
   <line x1="12" y1="780" x2="40" y2="780" stroke="#00ff00" fill="#404040" stroke-width="2" id="svg_102"/>
  </g>
  <g id="CC_DTRA">
   <rect fill="#404040" stroke="#000000" x="10" y="660" width="32" height="32" id="svg_104"/>
   <line x1="12" y1="672" x2="40" y2="672" stroke="#FF0000" fill="#404040" stroke-width="2" id="svg_107"/>
   <line x1="13" y1="680" x2="41" y2="680" stroke="#FFFF00" fill="#404040" stroke-width="2" stroke-dasharray="5,5" id="svg_105"/>
   <line fill="#404040" stroke="#FFFF00" x1="15" y1="669" x2="33" y2="685" marker-end="url(#se_marker_end_svg_12)" id="svg_106"/>
  </g>
 </g>
</svg>