<?xml version="1.0" encoding="UTF-8"?>
<svg width="400" height="400" xmlns="http://www.w3.org/2000/svg">
 <g>
  <metadata id="svg_65">image/svg xml</metadata>
  <rect x="0" y="-1" fill="#7f7f7f" stroke="#000000" width="400" height="400" id="svg_70"/>
  <rect fill="#eaeaea" x="275.62488" y="655.10946" width="0" height="61.91583" id="svg_69"/>
  <rect fill="#5fbf00" x="-0.54348" y="0" width="160" height="160" stroke="#000000" rx="20" ry="20" id="svg_71"/>
  <rect fill="#5fbf00" x="240" y="0" width="160" height="160" stroke="#000000" rx="20" ry="20" id="svg_72"/>
  <rect fill="#5fbf00" x="0" y="240" width="160" height="160" stroke="#000000" rx="20" ry="20" id="svg_73"/>
  <rect fill="#5fbf00" x="240" y="240" width="160" height="160" stroke="#000000" rx="20" ry="20" id="svg_74"/>
  <line fill="none" stroke="#ffff00" x1="0" y1="200" x2="120" y2="200" id="svg_75" stroke-width="2"/>
  <line fill="none" stroke="#ffff00" x1="280" y1="200" x2="400" y2="200" stroke-width="2" id="svg_76"/>
  <line fill="none" stroke="#ffff00" x1="200" y1="0" x2="200" y2="120" stroke-width="2" id="svg_77"/>
  <line fill="none" stroke="#ffff00" x1="200" y1="280" x2="200" y2="400" stroke-width="2" id="svg_78"/>
  <rect id="input0" height="63" width="23" y="169" x="97" stroke="rgb(100, 100, 100)" fill="rgb(100, 100, 100)"/>
  <rect id="input1" height="23" width="63" y="97" x="169" stroke="rgb(100, 100, 100)" fill="rgb(100, 100, 100)"/>
  <rect id="input2" height="30" width="30" y="165" x="285" stroke="rgb(100, 100, 100)" fill="rgb(100, 100, 100)"/>
  <rect id="input3" height="30" width="30" y="205" x="285" stroke="rgb(100, 100, 100)" fill="rgb(100, 100, 100)"/>
  <path id="phase1R" fill="#999999" stroke="#000000" d="m165,99.5l10,7l0,-5l20,0l0,-4c-6.666656,0 -13.333344,0 -20,0c0,-1.666672 0,-3.333328 0,-5l-10,7z" transform="rotate(-90, 180, 99.5)"/>
  <path transform="rotate(-180, 97.5, 217.5)" id="phase0G" fill="#999999" stroke="#000000" d="m82.5,217.5l10,7l0,-5l20,0l0,-4c-6.666992,0 -13.333008,0 -20,0c0,-1.667007 0,-3.332993 0,-5l-10,7z"/>
  <path transform="rotate(-180, 100.5, 182.5)" id="phase0R" fill="#999999" stroke="#000000" d="m85.5,182.5l10,7l0,-5l20,0l0,-4c-6.666992,0 -13.333008,0 -20,0c0,-1.667007 0,-3.332993 0,-5l-10,7z"/>
  <path id="phase1G" fill="#999999" stroke="#000000" d="m203,99.5l10,7l0,-5l20,0l0,-4c-6.666992,0 -13.333008,0 -20,0c0,-1.667007 0,-3.332993 0,-5l-10,7z" transform="rotate(-90, 218, 99.5)"/>
  <g id="phase2">
   <g id="svg_97" transform="rotate(90, 200, 126)">
    <line fill="none" stroke="#ffffff" stroke-width="4" x1="203.99949" y1="105.99813" x2="227.99949" y2="105.99813" id="svg_98"/>
    <line fill="none" stroke="#ffffff" stroke-width="4" x1="203.99949" y1="115.99813" x2="227.99949" y2="115.99813" id="svg_99"/>
    <line fill="none" stroke="#ffffff" stroke-width="4" x1="203.99949" y1="125.99813" x2="227.99949" y2="125.99813" id="svg_100"/>
    <line fill="none" stroke="#ffffff" stroke-width="4" x1="203.99949" y1="135.99813" x2="227.99949" y2="135.99813" id="svg_101"/>
    <line fill="none" stroke="#ffffff" stroke-width="4" x1="203.99949" y1="95.99813" x2="227.99949" y2="95.99813" id="svg_102"/>
    <line fill="none" stroke="#ffffff" stroke-width="4" x1="203.99949" y1="145.99813" x2="227.99949" y2="145.99813" id="svg_103"/>
    <line fill="none" stroke="#ffffff" stroke-width="4" x1="203.99949" y1="155.99813" x2="227.99949" y2="155.99813" id="svg_104"/>
    <line fill="none" stroke="#ffffff" stroke-width="4" x1="199.99949" y1="93.99813" x2="199.99949" y2="157.99813" id="svg_105"/>
   </g>
   <g id="svg_106" transform="rotate(-90, 200, 274)">
    <line fill="none" stroke="#ffffff" stroke-width="4" x1="203.99949" y1="254.00101" x2="227.99949" y2="254.00101" id="svg_107"/>
    <line fill="none" stroke="#ffffff" stroke-width="4" x1="203.99949" y1="264.00101" x2="227.99949" y2="264.00101" id="svg_108"/>
    <line fill="none" stroke="#ffffff" stroke-width="4" x1="203.99949" y1="274.00101" x2="227.99949" y2="274.00101" id="svg_109"/>
    <line fill="none" stroke="#ffffff" stroke-width="4" x1="203.99949" y1="284.00101" x2="227.99949" y2="284.00101" id="svg_110"/>
    <line fill="none" stroke="#ffffff" stroke-width="4" x1="203.99949" y1="244.00101" x2="227.99949" y2="244.00101" id="svg_111"/>
    <line fill="none" stroke="#ffffff" stroke-width="4" x1="203.99949" y1="294.00101" x2="227.99949" y2="294.00101" id="svg_112"/>
    <line fill="none" stroke="#ffffff" stroke-width="4" x1="203.99949" y1="304.00101" x2="227.99949" y2="304.00101" id="svg_113"/>
    <line fill="none" stroke="#ffffff" stroke-width="4" x1="199.99949" y1="242.00101" x2="199.99949" y2="306.00101" id="svg_114"/>
   </g>
  </g>
  <g id="phase3">
   <g id="svg_87">
    <line fill="none" stroke="#ffffff" stroke-width="4" x1="130" y1="180" x2="154" y2="180" id="svg_79"/>
    <line fill="none" stroke="#ffffff" stroke-width="4" x1="130" y1="190" x2="154" y2="190" id="svg_80"/>
    <line fill="none" stroke="#ffffff" stroke-width="4" x1="130" y1="200" x2="154" y2="200" id="svg_81"/>
    <line fill="none" stroke="#ffffff" stroke-width="4" x1="130" y1="210" x2="154" y2="210" id="svg_82"/>
    <line fill="none" stroke="#ffffff" stroke-width="4" x1="130" y1="170" x2="154" y2="170" id="svg_83"/>
    <line fill="none" stroke="#ffffff" stroke-width="4" x1="130" y1="220" x2="154" y2="220" id="svg_84"/>
    <line fill="none" stroke="#ffffff" stroke-width="4" x1="130" y1="230" x2="154" y2="230" id="svg_85"/>
    <line fill="none" stroke="#ffffff" stroke-width="4" x1="126" y1="168" x2="126" y2="232" id="svg_86"/>
   </g>
   <g id="svg_88" transform="rotate(180, 274.003, 200.003)">
    <line fill="none" stroke="#ffffff" stroke-width="4" x1="278.00187" y1="180.00102" x2="302.00187" y2="180.00102" id="svg_89"/>
    <line fill="none" stroke="#ffffff" stroke-width="4" x1="278.00187" y1="190.00102" x2="302.00187" y2="190.00102" id="svg_90"/>
    <line fill="none" stroke="#ffffff" stroke-width="4" x1="278.00187" y1="200.00102" x2="302.00187" y2="200.00102" id="svg_91"/>
    <line fill="none" stroke="#ffffff" stroke-width="4" x1="278.00187" y1="210.00102" x2="302.00187" y2="210.00102" id="svg_92"/>
    <line fill="none" stroke="#ffffff" stroke-width="4" x1="278.00187" y1="170.00102" x2="302.00187" y2="170.00102" id="svg_93"/>
    <line fill="none" stroke="#ffffff" stroke-width="4" x1="278.00187" y1="220.00102" x2="302.00187" y2="220.00102" id="svg_94"/>
    <line fill="none" stroke="#ffffff" stroke-width="4" x1="278.00187" y1="230.00102" x2="302.00187" y2="230.00102" id="svg_95"/>
    <line fill="none" stroke="#ffffff" stroke-width="4" x1="274.00187" y1="168.00102" x2="274.00187" y2="232.00102" id="svg_96"/>
   </g>
  </g>
  <title>Layer 1</title>
  <path fill="#999999" stroke="#000000" d="m185,100.5l10,7l0,-5l20,0l0,-4c-6.666992,0 -13.333008,0 -20,0c0,-1.667007 0,-3.332993 0,-5l-10,7z" transform="rotate(-90, 200, 100.5)" id="phase1Y"/>
  <path id="phase0Y" transform="rotate(-180, 100.5, 199.5)" fill="#999999" stroke="#000000" d="m85.5,199.5l10,7l0,-5l20,0l0,-4c-6.666992,0 -13.333008,0 -20,0c0,-1.667007 0,-3.332993 0,-5l-10,7z"/>
 </g>
</svg>